<svg width="16" height="16" viewBox="0 0 16 16" fill="none" xmlns="http://www.w3.org/2000/svg">
<path fill-rule="evenodd" clip-rule="evenodd" d="M8 16C12.4183 16 16 12.4183 16 8C16 3.58172 12.4183 0 8 0C3.58172 0 0 3.58172 0 8C0 12.4183 3.58172 16 8 16ZM4 11.5518V12.9531H8.66211C9.5599 12.9531 10.3551 12.7458 11.0479 12.3311C11.7406 11.9163 12.2829 11.3421 12.6748 10.6084C13.0667 9.87012 13.2627 9.02018 13.2627 8.05859V7.90137C13.2627 6.93978 13.0667 6.09212 12.6748 5.3584C12.2829 4.62012 11.7406 4.04362 11.0479 3.62891C10.3551 3.20964 9.5599 3 8.66211 3H5.0459H4V4.4082L5.0459 4.66797V11.2988L4 11.5518ZM8.53906 11.1348H7.44531V4.8252H8.53906C9.04492 4.8252 9.46875 4.9528 9.81055 5.20801C10.1523 5.46322 10.4098 5.82096 10.583 6.28125C10.7607 6.74154 10.8496 7.2793 10.8496 7.89453V8.05859C10.8496 8.67383 10.7607 9.21387 10.583 9.67871C10.4098 10.139 10.1523 10.4967 9.81055 10.752C9.46875 11.0072 9.04492 11.1348 8.53906 11.1348Z" fill="#1975FF"/>
</svg>
