<svg height="1024" version="1.1" viewBox="0 0 1024 1024" width="1024" xmlns="http://www.w3.org/2000/svg">
    <title>HTML DOM</title>
    <linearGradient id="SVGID_22493" gradientUnits="userSpaceOnUse" x1="-40" y1="96.6067781681424" x2="233.2135563362848" y2="96.6067781681424">
        <stop offset="0%" style="stop-color:rgb(251,200,212);stop-opacity: 1"/>
        <stop offset="100%" style="stop-color:rgb(151,149,240);stop-opacity: 1"/>
    </linearGradient>
    <g transform="translate(512 512) scale(10.3 10.3)">
        <linearGradient id="SVGID_22489" gradientUnits="userSpaceOnUse" x1="13.256767591219315" y1="41.2625" x2="67.80581557503866" y2="41.2625">
            <stop offset="0%" style="stop-color:rgb(251,200,212);stop-opacity: 1"/>
            <stop offset="100%" style="stop-color:rgb(151,149,240);stop-opacity: 1"/>
        </linearGradient>
        <path d="M 64 11 H 16 c -1.7 0 -3 1.4 -2.7 3.1 l 6.4 44.1 c 0.2 1.4 1.3 3 2.6 3.6 L 37.8 70 c 1.3 0.7 3.2 0.7 4.5 0 l 15.5 -8.1 c 1.3 -0.7 2.4 -2.2 2.6 -3.6 l 6.4 -44.1 C 66.9 12.4 65.7 11 64 11 M 58.3 57.9 c -0.1 0.8 -0.8 1.8 -1.5 2.2 l -15.5 8.1 c -0.7 0.4 -1.9 0.4 -2.6 0 L 23.2 60 c -0.7 -0.4 -1.4 -1.4 -1.5 -2.2 l -6.4 -44.1 C 15.2 13.3 15.5 13 16 13 h 48 c 0.5 0 0.8 0.4 0.7 0.8 L 58.3 57.9 z" style="stroke: none; stroke-width: 1; stroke-dasharray: none; stroke-linecap: butt; stroke-linejoin: miter; stroke-miterlimit: 4; fill: url(#SVGID_22489); fill-rule: nonzero; opacity: 1;" transform="translate(0.031292 0.7625) translate(-40.03129158312899, -40.7625) " stroke-linecap="round" />
        <linearGradient id="SVGID_22490" gradientUnits="userSpaceOnUse" x1="23.000000000000007" y1="37.5" x2="34" y2="37.5">
            <stop offset="0%" style="stop-color:rgb(251,200,212);stop-opacity: 1"/>
            <stop offset="100%" style="stop-color:rgb(151,149,240);stop-opacity: 1"/>
        </linearGradient>
        <path d="M 32.7 28.3 c -0.4 -0.4 -1 -0.4 -1.4 0 l -8 8 c -0.4 0.4 -0.4 1 0 1.4 l 8 8 c 0.4 0.4 1 0.4 1.4 0 c 0.4 -0.4 0.4 -1 0 -1.4 L 25.4 37 l 7.3 -7.3 C 33.1 29.3 33.1 28.7 32.7 28.3" style="stroke: none; stroke-width: 1; stroke-dasharray: none; stroke-linecap: butt; stroke-linejoin: miter; stroke-miterlimit: 4; fill: url(#SVGID_22490); fill-rule: nonzero; opacity: 1;" transform="translate(-12 -3) translate(-28.000000000000004, -37) " stroke-linecap="round" />
        <linearGradient id="SVGID_22491" gradientUnits="userSpaceOnUse" x1="47" y1="37.5" x2="57.99999999999999" y2="37.5">
            <stop offset="0%" style="stop-color:rgb(251,200,212);stop-opacity: 1"/>
            <stop offset="100%" style="stop-color:rgb(151,149,240);stop-opacity: 1"/>
        </linearGradient>
        <path d="M 48.7 28.3 c -0.4 -0.4 -1 -0.4 -1.4 0 c -0.4 0.4 -0.4 1 0 1.4 l 7.3 7.3 l -7.3 7.3 c -0.4 0.4 -0.4 1 0 1.4 c 0.4 0.4 1 0.4 1.4 0 l 8 -8 c 0.4 -0.4 0.4 -1 0 -1.4 L 48.7 28.3 z" style="stroke: none; stroke-width: 1; stroke-dasharray: none; stroke-linecap: butt; stroke-linejoin: miter; stroke-miterlimit: 4; fill: url(#SVGID_22491); fill-rule: nonzero; opacity: 1;" transform="translate(12 -3) translate(-52, -37) " stroke-linecap="round" />
        <linearGradient id="SVGID_22492" gradientUnits="userSpaceOnUse" x1="34.02153903091734" y1="37.45" x2="46.940953996363625" y2="37.45">
            <stop offset="0%" style="stop-color:rgb(251,200,212);stop-opacity: 1"/>
            <stop offset="100%" style="stop-color:rgb(151,149,240);stop-opacity: 1"/>
        </linearGradient>
        <path d="M 45.4 26.1 c -0.5 -0.2 -1.1 0 -1.3 0.4 l -10 20 c -0.2 0.5 0 1.1 0.4 1.3 c 0.5 0.2 1.1 0 1.3 -0.4 l 10 -20 C 46.1 27 45.9 26.4 45.4 26.1" style="stroke: none; stroke-width: 1; stroke-dasharray: none; stroke-linecap: butt; stroke-linejoin: miter; stroke-miterlimit: 4; fill: url(#SVGID_22492); fill-rule: nonzero; opacity: 1;" transform="translate(-0.018753 -3.05) translate(-39.981246513640485, -36.95) " stroke-linecap="round" />
    </g>
</svg>